<svg width="44" height="54" viewBox="0 0 44 54" fill="none" xmlns="http://www.w3.org/2000/svg">
<path d="M14 32.3333L19.3334 37.6667L30 27M14 8.33333H8.66671C7.25222 8.33333 5.89567 8.89524 4.89547 9.89543C3.89528 10.8956 3.33337 12.2522 3.33337 13.6667V45.6667C3.33337 47.0812 3.89528 48.4377 4.89547 49.4379C5.89567 50.4381 7.25222 51 8.66671 51H35.3334C36.7479 51 38.1044 50.4381 39.1046 49.4379C40.1048 48.4377 40.6667 47.0812 40.6667 45.6667V13.6667C40.6667 12.2522 40.1048 10.8956 39.1046 9.89543C38.1044 8.89524 36.7479 8.33333 35.3334 8.33333H30H14ZM14 8.33333C14 9.74782 14.5619 11.1044 15.5621 12.1046C16.5623 13.1048 17.9189 13.6667 19.3334 13.6667H24.6667C26.0812 13.6667 27.4377 13.1048 28.4379 12.1046C29.4381 11.1044 30 9.74782 30 8.33333H14ZM14 8.33333C14 6.91885 14.5619 5.56229 15.5621 4.5621C16.5623 3.5619 17.9189 3 19.3334 3H24.6667C26.0812 3 27.4377 3.5619 28.4379 4.5621C29.4381 5.56229 30 6.91885 30 8.33333H14Z" stroke="#ED6C33" stroke-width="5.33333" stroke-linecap="round" stroke-linejoin="round"/>
</svg>
